<svg xmlns="http://www.w3.org/2000/svg" xmlns:xlink="http://www.w3.org/1999/xlink" viewBox="0,0,256,256" width="48px" height="48px"><defs><linearGradient x1="17.846" y1="15.541" x2="27.078" y2="31.153" gradientUnits="userSpaceOnUse" id="color-1"><stop offset="0" stop-color="#080808"></stop><stop offset="1" stop-color="#080808"></stop></linearGradient></defs><g fill="none" fill-rule="nonzero" stroke="none" stroke-width="1" stroke-linecap="butt" stroke-linejoin="miter" stroke-miterlimit="10" stroke-dasharray="" stroke-dashoffset="0" font-family="none" font-weight="none" font-size="none" text-anchor="none" style="mix-blend-mode: normal"><g transform="scale(5.33333,5.33333)"><path d="M6.391,10.671c-0.085,-2.448 1.822,-4.706 4.401,-4.706h26.42c2.578,0 4.486,2.258 4.401,4.706c-0.082,2.352 0.024,5.398 0.791,7.882c0.769,2.492 2.066,4.067 4.19,4.269v2.295c-2.124,0.202 -3.421,1.777 -4.19,4.269c-0.767,2.484 -0.873,5.53 -0.791,7.882c0.085,2.448 -1.822,4.706 -4.401,4.706h-26.42c-2.578,0 -4.486,-2.258 -4.4,-4.706c0.082,-2.352 -0.025,-5.398 -0.791,-7.882c-0.769,-2.492 -2.069,-4.067 -4.194,-4.269v-2.295c2.124,-0.202 3.425,-1.777 4.194,-4.269c0.766,-2.483 0.872,-5.53 0.79,-7.882z" fill="#9c9c9c"></path><path d="M25.042,34.016c4.366,0 6.997,-2.138 6.997,-5.664c0,-2.665 -1.877,-4.595 -4.665,-4.9v-0.111c2.048,-0.333 3.655,-2.235 3.655,-4.359c0,-3.026 -2.389,-4.997 -6.03,-4.997h-8.192v20.031zM19.994,16.525h4.238c2.304,0 3.612,1.027 3.612,2.887c0,1.985 -1.522,3.096 -4.281,3.096h-3.57v-5.983zM19.994,31.475v-6.594h4.21c3.015,0 4.579,1.11 4.579,3.276c0,2.165 -1.522,3.318 -4.394,3.318z" fill="url(#color-1)"></path></g></g></svg>